<?xml version="1.0" encoding="UTF-8" standalone="no"?>
<svg width="16px" height="16px" viewBox="0 0 16 16" version="1.1" xmlns="http://www.w3.org/2000/svg" xmlns:xlink="http://www.w3.org/1999/xlink" xmlns:sketch="http://www.bohemiancoding.com/sketch/ns">
    <!-- Generator: Sketch 3.2.2 (9983) - http://www.bohemiancoding.com/sketch -->
    <title>category</title>
    <desc>Created with Sketch.</desc>
    <defs></defs>
    <g id="Page-1" stroke="none" stroke-width="1" fill="none" fill-rule="evenodd" sketch:type="MSPage">
        <g id="category" sketch:type="MSArtboardGroup" fill="#E8834E">
            <g id="Category" sketch:type="MSLayerGroup">
                <path d="M5.987,7.339 L10.014,7.339 L10.014,8.661 L5.987,8.661 L5.987,7.339 Z" id="Fill-2" sketch:type="MSShapeGroup"></path>
                <path d="M8,14.744 C4.27514237,14.744 1.256,11.7248576 1.256,8 C1.256,4.27599843 4.27528634,1.257 8,1.257 C11.7240697,1.257 14.744,4.27635442 14.744,8 C14.744,11.7245016 11.7242137,14.744 8,14.744 Z M8,0.257 C3.72302293,0.257 0.256,3.72369233 0.256,8 C0.256,12.2771424 3.72285763,15.744 8,15.744 C12.2764771,15.744 15.744,12.2768077 15.744,8 C15.744,3.72402697 12.2763118,0.257 8,0.257 Z" id="Stroke-3" sketch:type="MSShapeGroup"></path>
                <path d="M4.254,5.144 C4.254,4.96014237 4.40314237,4.811 4.587,4.811 L11.413,4.811 C11.5968576,4.811 11.746,4.96014237 11.746,5.144 L11.746,7.339 L12.746,7.339 L12.746,5.144 C12.746,4.40785763 12.1491424,3.811 11.413,3.811 L4.587,3.811 C3.85085763,3.811 3.254,4.40785763 3.254,5.144 L3.254,7.339 L4.254,7.339 L4.254,5.144 Z M3.254,10.857 C3.254,11.5938899 3.85060479,12.19 4.587,12.19 L11.413,12.19 C12.1493952,12.19 12.746,11.5938899 12.746,10.857 L12.746,8.662 L11.746,8.662 L11.746,10.857 C11.746,11.0414194 11.5972961,11.19 11.413,11.19 L4.587,11.19 C4.40270393,11.19 4.254,11.0414194 4.254,10.857 L4.254,8.662 L3.254,8.662 L3.254,10.857 Z" id="Stroke-1" sketch:type="MSShapeGroup"></path>
            </g>
        </g>
    </g>
</svg>