<?xml version="1.0" encoding="UTF-8" standalone="no"?>
<svg width="16px" height="16px" viewBox="0 0 16 16" version="1.1" xmlns="http://www.w3.org/2000/svg" xmlns:xlink="http://www.w3.org/1999/xlink" xmlns:sketch="http://www.bohemiancoding.com/sketch/ns">
    <!-- Generator: Sketch 3.2.2 (9983) - http://www.bohemiancoding.com/sketch -->
    <title>Artboard 1</title>
    <desc>Created with Sketch.</desc>
    <defs></defs>
    <g id="Page-1" stroke="none" stroke-width="1" fill="none" fill-rule="evenodd" sketch:type="MSPage">
        <g id="Artboard-1" sketch:type="MSArtboardGroup">
            <g id="information" sketch:type="MSLayerGroup">
                <path d="M3.754,8.165 L3.754,5.969 C3.754,5.509 4.127,5.136 4.587,5.136 L11.413,5.136 C11.873,5.136 12.246,5.509 12.246,5.969 L12.246,8.165 M3.754,7.487 L3.754,9.683 C3.754,10.144 4.127,10.516 4.587,10.516 L11.413,10.516 C11.873,10.516 12.246,10.144 12.246,9.683 L12.246,7.487" id="Stroke-1" stroke="#E8834E" sketch:type="MSShapeGroup"></path>
                <path d="M5.987,8.5005 L10.014,8.5005 L10.014,9.1625 L5.987,9.1625 L5.987,8.5005 Z" id="Fill-2" fill="#E8834E" sketch:type="MSShapeGroup"></path>
                <path d="M5.987,7.5095 L10.014,7.5095 L10.014,8.1715 L5.987,8.1715 L5.987,7.5095 Z" id="Fill-3" fill="#E8834E" sketch:type="MSShapeGroup"></path>
                <path d="M5.986,6.5005 L10.013,6.5005 L10.013,7.1625 L5.986,7.1625 L5.986,6.5005 Z" id="Fill-4" fill="#E8834E" sketch:type="MSShapeGroup"></path>
                <path d="M8,15.244 C3.999,15.244 0.756,12.001 0.756,8 C0.756,4 3.999,0.757 8,0.757 C12,0.757 15.244,4 15.244,8 C15.244,12.001 12,15.244 8,15.244 Z" id="Stroke-5" stroke="#E8834E" sketch:type="MSShapeGroup"></path>
                <path d="M11.717,10.637 L11.717,12.392 L9.598,10.637 L11.717,10.637" id="Fill-6" fill="#E8834E" sketch:type="MSShapeGroup"></path>
            </g>
        </g>
    </g>
</svg>