<?xml version="1.0" encoding="UTF-8" standalone="no"?>
<svg width="16px" height="16px" viewBox="0 0 16 16" version="1.1" xmlns="http://www.w3.org/2000/svg" xmlns:xlink="http://www.w3.org/1999/xlink" xmlns:sketch="http://www.bohemiancoding.com/sketch/ns">
    <!-- Generator: Sketch 3.2.2 (9983) - http://www.bohemiancoding.com/sketch -->
    <title>mail_lock</title>
    <desc>Created with Sketch.</desc>
    <defs></defs>
    <g id="Page-1" stroke="none" stroke-width="1" fill="none" fill-rule="evenodd" sketch:type="MSPage">
        <g id="mail_lock" sketch:type="MSArtboardGroup" stroke="#E8834E">
            <g id="mail-close" sketch:type="MSLayerGroup">
                <path d="M15.244,8 C15.244,12.001 12,15.244 8,15.244 C3.999,15.244 0.756,12.001 0.756,8 C0.756,4 3.999,0.757 8,0.757 C12,0.757 15.244,4 15.244,8 L15.244,8 Z" id="Stroke-1" sketch:type="MSShapeGroup"></path>
                <path d="M3.754,8.4374974 L3.754,6.04393903 C3.754,5.54255613 4.127,5.136 4.587,5.136 L11.413,5.136 C11.873,5.136 12.246,5.54255613 12.246,6.04393903 L12.246,8.4374974 M3.754,7.6985026 L3.754,10.092061 C3.754,10.5945338 4.127,11 4.587,11 L11.413,11 C11.873,11 12.246,10.5945338 12.246,10.092061 L12.246,7.6985026" id="Stroke-4" sketch:type="MSShapeGroup"></path>
                <path d="M5.66013962,7.0451801 L8.00695094,8.607404 L10.3555,7.0451801 M5.6445,8.9558199 L6.83484858,7.9079656 M10.3307496,8.97448732 L9.11346441,7.87677002" id="Stroke-2" stroke-width="0.25" stroke-linecap="round" sketch:type="MSShapeGroup"></path>
            </g>
        </g>
    </g>
</svg>