<?xml version="1.0" encoding="UTF-8" standalone="no"?>
<svg width="16px" height="16px" viewBox="0 0 16 16" version="1.1" xmlns="http://www.w3.org/2000/svg" xmlns:xlink="http://www.w3.org/1999/xlink" xmlns:sketch="http://www.bohemiancoding.com/sketch/ns">
    <!-- Generator: Sketch 3.2.2 (9983) - http://www.bohemiancoding.com/sketch -->
    <title>map</title>
    <desc>Created with Sketch.</desc>
    <defs></defs>
    <g id="Page-1" stroke="none" stroke-width="1" fill="none" fill-rule="evenodd" sketch:type="MSPage">
        <g id="map" sketch:type="MSArtboardGroup">
            <g id="Map" sketch:type="MSLayerGroup">
                <path d="M3.00671387,13.1429443 C3.00671387,13.1429443 3.90039062,11.465332 6.09570312,11.465332 C8.29101562,11.465332 12.7089844,11.4443359 12.7089844,9.29736328 C12.7089844,7.15039062 14.4541016,4.61108398 14.4541016,4.61108398" id="Path-26" stroke="#EFAB88" sketch:type="MSShapeGroup"></path>
                <path d="M15.244,8 C15.244,12.001 12,15.244 8,15.244 C3.999,15.244 0.756,12.001 0.756,8 C0.756,4 3.999,0.757 8,0.757 C12,0.757 15.244,4 15.244,8 L15.244,8 Z" id="Stroke-3" stroke="#E8834E" sketch:type="MSShapeGroup"></path>
                <path d="M7.95256527,3.5 C6.3489289,3.5 4.8989289,4.41149403 5.18256527,6.11112199 C5.32256527,6.95114549 6.13711072,9.04728804 6.13711072,9.04728804 C6.13711072,9.04728804 7.90983799,13.5 8.13711072,13.5 C8.36438345,13.5 9.9689289,8.86910123 9.9689289,8.86910123 C9.9689289,8.86910123 10.759838,6.65253574 10.8307471,6.11112199 C11.0552925,4.40170354 9.55620163,3.5 7.95256527,3.5 Z M7.99954545,6.9795791 C7.37954545,6.9795791 6.87772727,6.48644551 6.87772727,5.87827715 C6.87772727,5.27100054 7.37954545,4.77786695 7.99954545,4.77786695 C8.61954545,4.77786695 9.12227273,5.27100054 9.12227273,5.87827715 C9.12227273,6.48644551 8.61954545,6.9795791 7.99954545,6.9795791 Z" id="Path" fill="#E9834E" sketch:type="MSShapeGroup"></path>
            </g>
        </g>
    </g>
</svg>