<?xml version="1.0" encoding="UTF-8" standalone="no"?>
<svg width="16px" height="16px" viewBox="0 0 16 16" version="1.1" xmlns="http://www.w3.org/2000/svg" xmlns:xlink="http://www.w3.org/1999/xlink" xmlns:sketch="http://www.bohemiancoding.com/sketch/ns">
    <!-- Generator: Sketch 3.2.2 (9983) - http://www.bohemiancoding.com/sketch -->
    <title>menu</title>
    <desc>Created with Sketch.</desc>
    <defs></defs>
    <g id="Page-1" stroke="none" stroke-width="1" fill="none" fill-rule="evenodd" sketch:type="MSPage">
        <g id="menu" sketch:type="MSArtboardGroup">
            <g id="Menu" sketch:type="MSLayerGroup">
                <path d="M3.92545508,7.21750195 L12.0745449,7.21750195 L12.0745449,8.78349805 L3.92545508,8.78349805 L3.92545508,7.21750195 Z" id="Fill-2" fill="#E8834E" sketch:type="MSShapeGroup"></path>
                <path d="M3.92545508,4.50138232 L12.0745449,4.50138232 L12.0745449,6.06737843 L3.92545508,6.06737843 L3.92545508,4.50138232 Z" id="Fill-2" fill="#E8834E" sketch:type="MSShapeGroup"></path>
                <path d="M3.92545508,9.93362157 L12.0745449,9.93362157 L12.0745449,11.4996177 L3.92545508,11.4996177 L3.92545508,9.93362157 Z" id="Fill-2" fill="#E8834E" sketch:type="MSShapeGroup"></path>
                <path d="M15.244,8 C15.244,12.001 12,15.244 8,15.244 C3.999,15.244 0.756,12.001 0.756,8 C0.756,4 3.999,0.757 8,0.757 C12,0.757 15.244,4 15.244,8 L15.244,8 Z" id="Stroke-3" stroke="#E8834E" sketch:type="MSShapeGroup"></path>
            </g>
        </g>
    </g>
</svg>