<?xml version="1.0" encoding="UTF-8" standalone="no"?>
<svg width="16px" height="16px" viewBox="0 0 16 16" version="1.1" xmlns="http://www.w3.org/2000/svg" xmlns:xlink="http://www.w3.org/1999/xlink" xmlns:sketch="http://www.bohemiancoding.com/sketch/ns">
    <!-- Generator: Sketch 3.2.2 (9983) - http://www.bohemiancoding.com/sketch -->
    <title>passeword unlock</title>
    <desc>Created with Sketch.</desc>
    <defs>
        <path id="path-1" d="M1.288,2.007 C1.441,1.905 1.543,1.723 1.543,1.516 C1.543,1.196 1.3,0.936 1,0.936 C0.7,0.936 0.457,1.196 0.457,1.516 C0.457,1.723 0.559,1.905 0.711,2.007 L0.457,2.55 L1.543,2.55 L1.288,2.007 L1.288,2.007 Z"></path>
    </defs>
    <g id="Page-1" stroke="none" stroke-width="1" fill="none" fill-rule="evenodd" sketch:type="MSPage">
        <g id="passworld_unlock" sketch:type="MSArtboardGroup">
            <g id="passeword-unlock" sketch:type="MSLayerGroup">
                <path d="M15.244,7.744 C15.244,11.744 12,14.988 8,14.988 C3.999,14.988 0.756,11.744 0.756,7.744 C0.756,3.744 3.999,0.5 8,0.5 C12,0.5 15.244,3.744 15.244,7.744 L15.244,7.744 Z" id="Stroke-1" stroke="#E8834E" sketch:type="MSShapeGroup"></path>
                <path d="M5,6.744 L11,6.744 L11,10.744 L5,10.744 L5,6.744 Z" id="Fill-2" fill="#E8834E" sketch:type="MSShapeGroup"></path>
                <path d="M9.65,4.622 C9.228,4.08 8.644,3.744 8,3.744 C6.711,3.744 5.666,5.086 5.666,6.744 L5.666,7.604" id="Stroke-4" stroke="#E9834E" sketch:type="MSShapeGroup"></path>
                <g id="Group-7" transform="translate(7.000000, 7.000000)">
                    <mask id="mask-2" sketch:name="Clip 6" fill="white">
                        <use xlink:href="#path-1"></use>
                    </mask>
                    <g id="Clip-6"></g>
                    <path d="M0.457,0.936 L1.543,0.936 L1.543,2.55 L0.457,2.55 L0.457,0.936 Z" id="Fill-5" fill="#FFFFFF" sketch:type="MSShapeGroup" mask="url(#mask-2)"></path>
                </g>
            </g>
        </g>
    </g>
</svg>