<?xml version="1.0" encoding="UTF-8" standalone="no"?>
<svg width="16px" height="16px" viewBox="0 0 16 16" version="1.1" xmlns="http://www.w3.org/2000/svg" xmlns:xlink="http://www.w3.org/1999/xlink" xmlns:sketch="http://www.bohemiancoding.com/sketch/ns">
    <!-- Generator: Sketch 3.2.2 (9983) - http://www.bohemiancoding.com/sketch -->
    <title>password_lock</title>
    <desc>Created with Sketch.</desc>
    <defs></defs>
    <g id="Page-1" stroke="none" stroke-width="1" fill="none" fill-rule="evenodd" sketch:type="MSPage">
        <g id="password_lock" sketch:type="MSArtboardGroup">
            <g id="password-lock" sketch:type="MSLayerGroup">
                <path d="M15.244,8 C15.244,12.001 12,15.244 8,15.244 C3.999,15.244 0.756,12.001 0.756,8 C0.756,4 3.999,0.757 8,0.757 C12,0.757 15.244,4 15.244,8 L15.244,8 Z" id="Stroke-3" stroke="#E8834E" sketch:type="MSShapeGroup"></path>
                <rect id="Rectangle-1" fill="#E8834E" sketch:type="MSShapeGroup" x="5" y="7" width="6" height="4"></rect>
                <ellipse id="Oval-1" stroke="#E8834E" sketch:type="MSShapeGroup" cx="8" cy="7" rx="2.33333333" ry="3"></ellipse>
                <path d="M8.28844701,9.26358498 C8.44144411,9.16107016 8.54314804,8.9794196 8.54314804,8.77242273 C8.54314804,8.45234539 8.29997238,8.19287143 8,8.19287143 C7.70002762,8.19287143 7.45685196,8.45234539 7.45685196,8.77242273 C7.45685196,8.9794196 7.55855589,9.16107016 7.71155299,9.26358498 L7.45685196,9.80712857 L8.54314804,9.80712857 L8.28844701,9.26358498 Z" id="Oval-2" fill="#FFFFFF" sketch:type="MSShapeGroup"></path>
            </g>
        </g>
    </g>
</svg>