<?xml version="1.0" encoding="UTF-8" standalone="no"?>
<svg width="16px" height="16px" viewBox="0 0 16 16" version="1.1" xmlns="http://www.w3.org/2000/svg" xmlns:xlink="http://www.w3.org/1999/xlink" xmlns:sketch="http://www.bohemiancoding.com/sketch/ns">
    <!-- Generator: Sketch 3.2.2 (9983) - http://www.bohemiancoding.com/sketch -->
    <title>Artboard 1</title>
    <desc>Created with Sketch.</desc>
    <defs></defs>
    <g id="Page-1" stroke="none" stroke-width="1" fill="none" fill-rule="evenodd" sketch:type="MSPage">
        <g id="Artboard-1" sketch:type="MSArtboardGroup">
            <g id="User-male" sketch:type="MSLayerGroup">
                <g id="Group-4" transform="translate(2.000000, 8.000000)" sketch:type="MSShapeGroup">
                    <path d="M5.913,4.072 C5.913,4.072 5.132,3.215 5.269,2.905 C5.281,2.879 5.297,2.853 5.316,2.829 C4.257,2.527 4.291,1.521 3.76,1.342 C0.537,0.259 0.390502933,4.90051289 0.39050293,4.90051272 C0.387655326,4.73254263 2.0889238,6.3525832 2.0969238,6.5225832 L5.684,7.272 C5.626,7.227 5.577,7.174 5.544,7.116 C5.185,6.501 5.913,4.072 5.913,4.072 Z" id="Fill-1" fill="#E9834E"></path>
                    <path d="M6.903,2.751 C6.956,2.795 6.995,2.848 7.016,2.905 C7.122,3.203 6.499,4.04 6.499,4.04 C6.499,4.04 7.361,6.408 7.016,7.064 C6.975,7.142 6.902,7.212 6.818,7.272 L9.99975579,6.61096205 C10.0077558,6.44096205 11.7572023,4.91611961 11.7319998,4.75097654 C11.5825195,3.7714844 11.993,0.375 8.483,1.051 C7.979,1.147 7.943,2.315 6.903,2.751 Z" id="Fill-3" fill="#E8834E"></path>
                </g>
                <path d="M10.4855,6.292 C10.4855,8.126 9.3715,9.614 7.9995,9.614 C6.6265,9.614 5.5145,8.126 5.5145,6.292 C5.5145,4.458 6.6265,2.971 7.9995,2.971 C9.3715,2.971 10.4855,4.458 10.4855,6.292" id="Fill-6" fill="#E9834E" sketch:type="MSShapeGroup"></path>
                <path d="M8,14.772 C4.20199823,14.772 1.123,11.6927135 1.123,7.894 C1.123,4.09614237 4.20214237,1.017 8,1.017 C11.7985018,1.017 14.877,4.0957865 14.877,7.894 C14.877,11.6930694 11.7986459,14.772 8,14.772 Z M8,0.017 C3.64985763,0.017 0.123,3.54385763 0.123,7.894 C0.123,12.2449773 3.64969252,15.772 8,15.772 C12.3509726,15.772 15.877,12.2453122 15.877,7.894 C15.877,3.54352271 12.3508075,0.017 8,0.017 Z" id="Stroke-5" fill="#E8834E" sketch:type="MSShapeGroup"></path>
            </g>
        </g>
    </g>
</svg>