<?xml version="1.0" encoding="UTF-8" standalone="no"?>
<svg width="16px" height="16px" viewBox="0 0 16 16" version="1.1" xmlns="http://www.w3.org/2000/svg" xmlns:xlink="http://www.w3.org/1999/xlink" xmlns:sketch="http://www.bohemiancoding.com/sketch/ns">
    <!-- Generator: Sketch 3.2.2 (9983) - http://www.bohemiancoding.com/sketch -->
    <title>Artboard 2</title>
    <desc>Created with Sketch.</desc>
    <defs></defs>
    <g id="Page-1" stroke="none" stroke-width="1" fill="none" fill-rule="evenodd" sketch:type="MSPage">
        <g id="Artboard-2" sketch:type="MSArtboardGroup">
            <g id="User-female" sketch:type="MSLayerGroup">
                <path d="M6.41702168,12.7022944 C6.04975846,12.6614934 5.62255449,12.6196795 5.65287326,12.5988615 C4.7078539,11.7961853 4.61893784,10.0165755 4.61893784,10.0165755 L3.75626694,10.0165755 C2.63810288,9.77830399 2.45288089,11.9776611 2.45288064,12.9503174 C2.45288061,13.0892677 3.87823025,14.2920128 3.88623025,14.4326172 L7.12198269,15.272 C7.09974929,15.2588651 7.26819944,15.2383089 7.52718899,15.2139841 C8.35308271,15.3333694 9.28566519,15.4619191 9.23876954,15.4896239 L12.8730469,13.861733 C12.8810469,13.7211286 13.7143175,12.5318277 13.7319999,12.3934327 C13.8811035,11.2264404 13.3018798,9.77830399 12.1837157,10.0165755 L11.3210448,10.0165755 C11.3210448,10.0165755 11.2321288,11.7961853 10.2871094,12.5988615 C10.3174282,12.6196795 9.89022423,12.6614934 9.52296101,12.7022944 C9.46782219,12.6363284 9.42423557,12.5988615 9.42423557,12.5988615 C9.42423557,12.5988615 8.66961123,12.6509682 7.96999134,12.7019631 C7.27037146,12.6509682 6.51574712,12.5988615 6.51574712,12.5988615 C6.51574712,12.5988615 6.47216049,12.6363284 6.41702168,12.7022944 Z" id="body" fill="#E8834E" sketch:type="MSShapeGroup"></path>
                <path d="M15.377,7.894 C15.377,11.969 12.075,15.272 8,15.272 C3.926,15.272 0.623,11.969 0.623,7.894 C0.623,3.82 3.926,0.517 8,0.517 C12.075,0.517 15.377,3.82 15.377,7.894 L15.377,7.894 Z" id="circle" stroke="#E8834E" sketch:type="MSShapeGroup"></path>
                <path d="M9.30773926,8.82958985 C9.30773926,10.1322022 10.4259033,10.0211182 10.4259033,10.0211182 C10.4259033,10.0211182 8.52421411,11.6052246 7.83911133,11.6052246 C7.26126766,11.6052246 5.50231934,10.0211182 5.50231934,10.0211182 C5.50231934,10.0211182 6.74682617,10.0211182 6.74682617,8.82958983 C6.74682617,7.63806146 9.30773926,7.52697755 9.30773926,8.82958985 Z" id="neak" fill="#E8834E" sketch:type="MSShapeGroup"></path>
                <path d="M9.80872562,8.56955824 C9.35525082,9.21249816 8.71218303,9.614 7.9995,9.614 C7.31023613,9.614 6.68674872,9.23899861 6.23670275,8.63347692 C5.82007336,8.80188261 4.48249572,9.25400349 4.02941895,8.33093262 C3.48999023,7.23193359 3.42443848,6.64758302 4.24951172,5.50378418 C5.07458496,4.35998534 4.90545639,4.76965331 5.22064205,3.50744628 C5.53582771,2.24523925 7.38781738,2.44970703 7.38781738,2.44970703 C7.38781738,2.44970703 9.20153793,1.99267579 9.50854476,3.28057865 C9.50854476,3.28057866 9.74816879,3.16369633 10.2650755,3.67456059 C10.7819823,4.18542485 11.5338744,3.90289299 11.3603514,4.63104241 C11.1868285,5.35919182 11.9191287,5.23968498 11.3603516,6.30664062 C10.8015744,7.37359627 12.3564335,7.56975113 11.7588504,8.22650163 C11.2044776,8.83576361 11.0110529,9.42767046 9.80872563,8.56955824 Z" id="head" fill="#E9834E" sketch:type="MSShapeGroup"></path>
            </g>
        </g>
    </g>
</svg>